<svg class="line_stars" xmlns="http://www.w3.org/2000/svg" width="100%" height="100%" viewBox="0 0 600 500" data-projection-id="337">
    <path d="M 120 100 L 120 370 C 120 386.569 133.431 400 150 400 L 150 400 C 166.569 400 180 386.569 180 370 L 180 130 C 180 113.431 193.431 100 210 100 L 210 100 C 226.569 100 240 113.431 240 130 L 240 370 C 240 386.569 253.431 400 270 400 L 270 400 C 286.569 400 300 386.569 300 370 L 300 130 C 300 113.431 313.431 100 330 100 L 330 100 C 346.569 100 360 113.431 360 130 L 360 370 C 360 386.569 373.431 400 390 400 L 390 400 C 406.569 400 420 386.569 420 370 L 420 130 C 420 113.431 433.431 100 450 100 L 450 100 C 466.569 100 480 113.431 480 130 L 480 400" stroke="#025751" stroke-width="50" stroke-linejoin="round" stroke-linecap="round" fill="transparent" pathLength="1" stroke-dashoffset="0px" stroke-dasharray="0.9992311461309584px 1px" data-projection-id="338"></path>
</svg>
